<svg width="24" height="24" viewBox="0 0 24 24" fill="none" xmlns="http://www.w3.org/2000/svg">
<path d="M12 21.8571C17.5228 21.8571 22 17.412 22 11.9286C22 6.44517 17.5228 2 12 2C6.47715 2 2 6.44517 2 11.9286C2 17.412 6.47715 21.8571 12 21.8571Z" stroke="black" stroke-width="2" stroke-linecap="round" stroke-linejoin="round"/>
<path d="M12 15.9001C14.2091 15.9001 16 14.1221 16 11.9287C16 9.73534 14.2091 7.95728 12 7.95728C9.79086 7.95728 8 9.73534 8 11.9287C8 14.1221 9.79086 15.9001 12 15.9001Z" stroke="black" stroke-width="2" stroke-linecap="round" stroke-linejoin="round"/>
<path d="M21.17 7.95728H12" stroke="black" stroke-width="2" stroke-linecap="round" stroke-linejoin="round"/>
<path d="M3.95 6.03101L8.54 13.9143" stroke="black" stroke-width="2" stroke-linecap="round" stroke-linejoin="round"/>
<path d="M10.88 21.7976L15.46 13.9143" stroke="black" stroke-width="2" stroke-linecap="round" stroke-linejoin="round"/>
</svg>
