<svg width="18" height="18" viewBox="0 0 18 18" fill="none" xmlns="http://www.w3.org/2000/svg">
<path d="M16.6697 7.57916C16.3094 7.31935 15.4838 7.22192 14.8383 7.35183C14.7632 6.7023 14.4179 6.13396 13.8174 5.63058L13.4722 5.37077L13.232 5.74425C12.9317 6.23139 12.7816 6.9134 12.8266 7.56292C12.8417 7.79026 12.9167 8.19621 13.1419 8.55345C12.9317 8.68336 12.4964 8.84574 11.9259 8.84574H1.07217L1.04215 8.97564C0.937064 9.62517 0.937064 11.6549 2.16806 13.2138C3.09881 14.3992 4.47992 15 6.29638 15C10.2295 15 13.1419 13.0352 14.508 9.47903C15.0484 9.49526 16.2044 9.47903 16.7898 8.26116C16.8048 8.22869 16.8349 8.16373 16.94 7.92016L17 7.79026L16.6697 7.57916ZM9.74916 3H8.09783V4.62382H9.74916V3ZM9.74916 4.94858H8.09783V6.5724H9.74916V4.94858ZM7.79759 4.94858H6.14626V6.5724H7.79759V4.94858ZM5.84602 4.94858H4.19469V6.5724H5.84602V4.94858ZM3.89445 6.89716H2.24312V8.52097H3.89445V6.89716ZM5.84602 6.89716H4.19469V8.52097H5.84602V6.89716ZM7.79759 6.89716H6.14626V8.52097H7.79759V6.89716ZM9.74916 6.89716H8.09783V8.52097H9.74916V6.89716ZM11.7007 6.89716H10.0494V8.52097H11.7007V6.89716Z" fill="#2396ED"/>
</svg>
