<svg width="18" height="18" viewBox="0 0 18 18" fill="none" xmlns="http://www.w3.org/2000/svg">
<g clip-path="url(#clip0_377_1034)">
<path d="M17.6605 8.19798L9.80147 0.339501C9.3492 -0.113167 8.6151 -0.113167 8.16223 0.339501L6.5303 1.97143L8.60048 4.04162C9.08159 3.87908 9.6332 3.9881 10.0167 4.37164C10.4021 4.75755 10.5103 5.31391 10.3438 5.79659L12.3389 7.79173C12.8216 7.62543 13.3786 7.73307 13.7641 8.11918C14.3029 8.65776 14.3029 9.5307 13.7641 10.0697C13.2251 10.6087 12.3522 10.6087 11.813 10.0697C11.4077 9.66402 11.3076 9.06875 11.5128 8.56948L9.65216 6.70884L9.65196 11.6052C9.7833 11.6704 9.90733 11.7571 10.0167 11.8661C10.5555 12.4047 10.5555 13.2777 10.0167 13.817C9.47777 14.3558 8.60443 14.3558 8.06625 13.817C7.52747 13.2777 7.52747 12.4047 8.06625 11.8661C8.19936 11.7332 8.35341 11.6327 8.51773 11.5651V6.62313C8.35341 6.55598 8.19956 6.45604 8.06625 6.32214C7.65802 5.9145 7.55986 5.31549 7.76901 4.81423L5.72845 2.77328L0.339694 8.16164C-0.11317 8.6147 -0.11317 9.34881 0.339694 9.80148L8.19877 17.6602C8.65124 18.1128 9.38514 18.1128 9.83821 17.6602L17.6605 9.83801C18.1132 9.38515 18.1132 8.65065 17.6605 8.19798Z" fill="#DE4C36"/>
</g>
<defs>
<clipPath id="clip0_377_1034">
<rect width="18" height="18" fill="white"/>
</clipPath>
</defs>
</svg>
