<svg width="18" height="18" viewBox="0 0 18 18" fill="none" xmlns="http://www.w3.org/2000/svg">
<g clip-path="url(#clip0_377_1151)">
<path d="M6.62456 7.00004C7.25031 6.99691 7.89203 7.2028 8.37838 7.66683C8.62759 7.89818 8.8289 8.18847 8.99984 8.49753C9.30746 7.9272 9.75682 7.44263 10.3109 7.20905C10.9861 6.9183 11.7493 6.9384 12.4234 7.22334C13.0121 7.46987 13.5269 7.89951 13.9938 8.37203C14.359 8.74183 14.697 9.14646 15.0732 9.50241C15.2714 9.68686 15.4844 9.8597 15.7281 9.95528C16.0521 10.0821 16.4353 9.96242 16.6669 9.67614C16.8815 9.40818 16.8683 8.94504 16.6319 8.70029C16.4816 8.55157 16.2246 8.58149 16.1183 8.77979C16.0252 8.937 16.0774 9.13306 16.1502 9.28536C15.9567 9.12324 15.7628 8.89725 15.7636 8.60248C15.7235 8.26172 15.9438 7.96115 16.2079 7.8419C16.723 7.60564 17.369 7.8093 17.6942 8.3296C18.0068 8.81507 18.0318 9.45328 17.9772 10.0316C17.9114 10.581 17.6435 11.0937 17.2464 11.4117C16.6888 11.8681 15.982 12.0097 15.3095 11.9999C14.6631 11.9798 14.0234 11.8123 13.4245 11.5354C12.423 11.0736 11.4857 10.4354 10.4515 10.0665C10.1084 9.91374 9.74358 9.83112 9.37677 9.80566C9.08473 9.80343 8.80787 9.7878 8.53218 9.80923C8.19575 9.8463 7.86126 9.92535 7.54625 10.0669C6.4945 10.4421 5.54322 11.0964 4.52263 11.5591C3.66091 11.9436 2.70612 12.1222 1.79144 11.9088C1.27978 11.79 0.770459 11.5305 0.42507 11.0682C0.129522 10.6752 -0.012216 10.1491 0.00180205 9.63372C-0.0145524 9.14735 0.078512 8.63062 0.358873 8.25189C0.619765 7.89282 1.03992 7.7106 1.44333 7.75079C1.70305 7.76464 1.96628 7.8946 2.12671 8.13443C2.25287 8.32424 2.26066 8.58417 2.20536 8.80614C2.138 9.00578 1.99899 9.16164 1.8479 9.28134C1.925 9.13217 1.97173 8.93521 1.88061 8.77934C1.76847 8.57167 1.49239 8.55068 1.34637 8.72128C1.16647 8.93343 1.1287 9.28 1.24941 9.53993C1.38025 9.81236 1.65087 9.96778 1.91293 9.99949C2.30933 10.0388 2.65316 9.75698 2.94404 9.48365C3.54604 8.88921 4.08807 8.20902 4.75587 7.70613C5.30647 7.28274 5.9552 6.99646 6.62456 7.00004Z" fill="#423426"/>
</g>
<defs>
<clipPath id="clip0_377_1151">
<rect width="18" height="5" fill="white" transform="translate(0 7)"/>
</clipPath>
</defs>
</svg>
