<svg width="18" height="18" viewBox="0 0 18 18" fill="none" xmlns="http://www.w3.org/2000/svg">
<g clip-path="url(#clip0_373_77)">
<path d="M2.82189 15.7055L1.74754 3.65625H13.5524L12.4767 15.7036L7.64282 17.0437L2.82189 15.7055Z" fill="#E44F26"/>
<path d="M7.64999 16.0196L11.5563 14.9367L12.4752 4.64166H7.64999V16.0196Z" fill="#F1662A"/>
<path d="M7.65 9.11023H5.69447L5.55964 7.59696H7.65V6.11908H7.64474H3.94453L3.97992 6.51592L4.34281 10.5881H7.65V9.11023Z" fill="#EBEBEB"/>
<path d="M7.64999 12.9481L7.6433 12.95L5.99759 12.5058L5.89241 11.3273H5.0925H4.40878L4.61581 13.6471L7.6433 14.4877L7.64999 14.4858V12.9481Z" fill="#EBEBEB"/>
<path d="M7.64474 9.11023V10.5881H9.46449L9.29332 12.5049L7.64474 12.9496V14.4872L10.6746 13.6472L10.6966 13.3976L11.0437 9.50707L11.0801 9.11023H10.6818H7.64474Z" fill="white"/>
<path d="M7.64474 6.11908V7.03708V7.59362V7.59696H11.2096H11.2144L11.2441 7.26515L11.3115 6.51592L11.3469 6.11908H7.64474Z" fill="white"/>
<path d="M6.22189 14.0055L5.14803 1.95624H16.952L15.8767 14.0036L11.0428 15.3437L6.22189 14.0055Z" fill="#1572B6"/>
<path d="M11.05 14.3196L14.9563 13.2366L15.8752 2.94165H11.05V14.3196Z" fill="#33A9DC"/>
<path d="M11.05 7.30695H13.0055L13.1404 5.79368H11.05V4.3158H11.0552H14.7555L14.7201 4.71216L14.3572 8.78483H11.05V7.30695Z" fill="white"/>
<path d="M11.0591 11.1449L11.0524 11.1468L9.40668 10.7021L9.30149 9.52356H8.50159H7.81787L8.0249 11.8439L11.0519 12.6844L11.0591 12.6825V11.1449Z" fill="#EBEBEB"/>
<path d="M12.8798 8.72217L12.7019 10.7011L11.0538 11.1458V12.6834L14.0832 11.8438L14.1057 11.5943L14.3624 8.72217H12.8798Z" fill="white"/>
<path d="M11.0553 4.3158V5.2338V5.78986V5.79368H7.49036H7.48557L7.45593 5.46138L7.38852 4.71216L7.35313 4.3158H11.0553Z" fill="#EBEBEB"/>
<path d="M11.05 7.30695V8.22495V8.78101V8.78483H9.42964H9.42485L9.39521 8.45253L9.32827 7.70331L9.29289 7.30695H11.05Z" fill="#EBEBEB"/>
</g>
<defs>
<clipPath id="clip0_373_77">
<rect width="18" height="18" fill="white"/>
</clipPath>
</defs>
</svg>
