<svg width="18" height="18" viewBox="0 0 18 18" fill="none" xmlns="http://www.w3.org/2000/svg">
<g clip-path="url(#clip0_369_584)">
<path d="M18 16.6214V1.3786C18 0.753286 17.5835 0.225548 17.013 0.0567627L16.3651 0.444453L9.17459 8.11112L8.94916 8.81574L8.81744 9.49207L11.0597 17.8719L11.4066 18H16.6214C17.3828 18 18 17.3828 18 16.6214Z" fill="#EA6618"/>
<path d="M0 1.37857V16.6214C0 17.0928 0.236714 17.5087 0.597595 17.7573L1.03974 17.5456L8.65079 9.39681L8.94917 8.81571L8.96031 8.25395L6.88888 0.373L6.57521 0H1.37857C0.617214 0 0 0.617214 0 1.37857Z" fill="#D65813"/>
<path d="M8.94915 8.81571L17.013 0.0567619C16.8888 0.0200238 16.7575 0 16.6214 0H6.57523L8.94915 8.81571Z" fill="#E05E11"/>
<path d="M1.37857 18H11.4066L8.94914 8.81573L0.597595 17.7573C0.819619 17.9103 1.08857 18 1.37857 18Z" fill="#DE5C16"/>
<path d="M6.67395 6.82239H7.67416C8.07266 8.32613 8.52623 9.64565 9.03226 10.8362C9.60545 9.49672 10.0256 8.17632 10.3812 6.82239H11.3264C10.9031 8.5047 10.2107 10.2002 9.41866 11.9503H8.58266C7.8219 10.2918 7.17423 8.58675 6.67395 6.82239ZM3.37489 4.21698H5.59892V13.754H3.36508V13.0188H4.73413V4.93255H3.37489V4.21698ZM14.6367 4.93256H13.2775V13.0188H14.6465V13.754H12.4127V4.21699H14.6367V4.93256Z" fill="white"/>
</g>
<defs>
<clipPath id="clip0_369_584">
<rect width="18" height="18" fill="white"/>
</clipPath>
</defs>
</svg>
