<svg width="18" height="18" viewBox="0 0 18 18" fill="none" xmlns="http://www.w3.org/2000/svg">
<path d="M14.3516 7.22585C14.3224 6.69823 14.4692 6.19929 14.2341 5.78923C13.6474 4.76267 12.1815 4.17654 9.24863 4.17654V4.14673V4.17598C6.02269 4.17598 4.64457 4.76267 4.05844 5.78867C3.85916 6.24026 3.76879 6.73236 3.79463 7.22529C3.68637 7.6764 3.63702 8.13963 3.64782 8.60342C3.73557 9.2486 3.79463 9.89379 3.88238 10.4799C3.97013 10.9783 4.67438 11.3597 4.76213 11.8299C4.93819 13.091 6.0525 13.6772 9.27788 13.6772V13.824H9.22163V13.6772C12.1539 13.6772 13.3841 13.0905 13.5619 11.8299C13.6181 11.3608 14.2071 10.9794 14.2931 10.4799C14.3809 9.89323 14.4107 9.24804 14.4984 8.60342C14.4978 8.14036 14.4486 7.67865 14.3516 7.22585Z" fill="#EFCCA3"/>
<path d="M9.10237 7.69501C9.58211 7.73886 10.025 7.97082 10.3342 8.34019C10.7449 8.69232 11.4193 8.92688 11.7124 9.2492C12.0692 9.54504 12.3423 9.92924 12.5044 10.3635C12.6165 10.7747 12.6757 11.1985 12.6804 11.6246C12.6804 11.7714 12.7682 11.7422 13.0027 11.6246C13.4673 11.3411 13.8833 10.9846 14.2346 10.5688C14.1469 11.0672 13.5309 11.5071 13.4724 11.9751C13.2964 13.2362 12.0662 13.8516 9.04443 13.8516H9.2205" fill="#CCAC8D"/>
<path d="M10.9794 6.69823C11.097 7.07961 11.4778 8.39923 10.7156 7.95936C10.9937 8.17779 11.1815 8.49097 11.2433 8.83911C11.2801 9.02579 11.3679 9.19861 11.497 9.33841C11.6261 9.47821 11.7914 9.57953 11.9745 9.63111C12.481 9.7062 12.9968 9.57979 13.4111 9.27898C13.6543 9.04594 13.821 8.74453 13.8891 8.41467C13.9572 8.0848 13.9235 7.74203 13.7925 7.43173C13.7033 7.17908 13.5418 6.95821 13.3281 6.7966C13.1144 6.63499 12.8579 6.53975 12.5904 6.52273C12.0375 6.37536 10.8619 6.25836 10.9794 6.69823Z" fill="#CCAC8D"/>
<path d="M12.4751 9.19069C13.0744 9.19069 13.5602 8.70489 13.5602 8.10563C13.5602 7.50637 13.0744 7.02057 12.4751 7.02057C11.8759 7.02057 11.3901 7.50637 11.3901 8.10563C11.3901 8.70489 11.8759 9.19069 12.4751 9.19069Z" fill="black"/>
<path d="M12.1815 7.90033C12.3433 7.90033 12.4746 7.76913 12.4746 7.60727C12.4746 7.44542 12.3433 7.31421 12.1815 7.31421C12.0196 7.31421 11.8884 7.44542 11.8884 7.60727C11.8884 7.76913 12.0196 7.90033 12.1815 7.90033Z" fill="white"/>
<path d="M10.8034 8.04712C11.3551 8.43419 11.866 8.87634 12.3283 9.36674C12.8559 10.0417 12.8559 10.1587 12.8559 10.1587L12.4746 10.3348C12.1895 9.77843 11.7777 9.29676 11.2725 8.92856C10.5975 8.54718 10.5103 8.22487 10.5103 8.22487L10.8034 8.04712Z" fill="#EFCCA3"/>
<path d="M9.1322 7.69501C8.62715 7.7376 8.15636 7.96777 7.81257 8.34019C7.40195 8.69232 6.66901 8.92688 6.40632 9.2492C6.04051 9.54306 5.75748 9.92709 5.58507 10.3635C5.47295 10.7747 5.41378 11.1985 5.40901 11.6246C5.40901 11.7714 5.43826 11.8007 5.05689 11.6246C4.58548 11.3505 4.16803 10.9927 3.82501 10.5688C3.91276 11.0672 4.5287 11.5071 4.5872 11.9751C4.76326 13.2069 5.99345 13.8223 9.0152 13.8223H9.22051" fill="#CCAC8D"/>
<path d="M11.9469 9.71833C11.6105 9.27197 11.1769 8.90799 10.679 8.65393C10.1811 8.39988 9.63199 8.26239 9.07313 8.25189C8.51495 8.2659 7.96702 8.40491 7.46967 8.6587C6.97232 8.91248 6.53822 9.27458 6.19932 9.71833C5.9736 9.95337 5.80366 10.2362 5.7021 10.5458C5.60054 10.8555 5.56996 11.184 5.61263 11.5071C5.61263 14.1171 6.52163 13.3251 7.13757 13.648C7.75098 13.8526 8.40337 13.9129 9.04388 13.824C9.68437 13.9142 10.3371 13.854 10.9502 13.648C11.5661 13.3256 12.4751 14.1171 12.4751 11.5071C12.5479 11.1887 12.5375 10.8569 12.445 10.5436C12.3525 10.2304 12.181 9.94618 11.9469 9.71833Z" fill="#56332B"/>
<path d="M9.01464 8.98535C8.99252 9.47401 8.90377 9.95735 8.75082 10.422L9.07314 10.3342L9.01464 8.98535Z" fill="#442823"/>
<path d="M9.10238 8.98535C9.1245 9.47401 9.21325 9.95735 9.3662 10.422L9.04388 10.3342L9.10238 8.98535Z" fill="#442823"/>
<path d="M8.07639 8.6923C7.95883 8.39924 8.3987 7.93011 9.10295 7.93011C9.8072 7.93011 10.2465 8.39924 10.1295 8.6923C10.0125 8.98537 9.54283 9.07368 9.10295 9.07368C8.63326 9.07312 8.19339 8.98537 8.07639 8.6923Z" fill="#56332B"/>
<path d="M9.10236 8.98535C9.10236 8.9291 9.51299 8.9291 9.74755 8.78004C9.74755 8.78004 9.27843 8.92685 9.19011 8.86779C9.12945 8.81411 9.08814 8.74196 9.07255 8.66248C9.05696 8.74196 9.01565 8.81411 8.95499 8.86779C8.86724 8.92404 8.33905 8.78004 8.33905 8.78004C8.56904 8.83083 8.79473 8.89948 9.01405 8.98535V9.21991C8.99569 9.60202 9.01453 9.98501 9.0703 10.3635C9.15805 10.481 9.12655 9.54223 9.12655 9.21991C9.10585 9.14355 9.09768 9.06433 9.10236 8.98535Z" fill="black"/>
<path d="M9.10237 10.6566C9.43384 10.7008 9.74758 10.8324 10.0114 11.0379C9.78202 10.7407 9.46343 10.5248 9.10237 10.422C8.68829 10.5119 8.32241 10.7524 8.07581 11.097C8.36489 10.8486 8.72318 10.6949 9.10237 10.6566Z" fill="#7F4A41"/>
<path d="M9.04389 12.825C8.58389 12.7996 8.12961 12.7108 7.69389 12.5612C7.60614 12.532 7.51783 12.5905 7.43008 12.5612C6.72141 12.3604 6.09497 11.9394 5.64133 11.3591V11.4767C5.64133 14.0867 6.55033 13.2947 7.16626 13.6176C7.77967 13.8222 8.43206 13.8825 9.07258 13.7936C9.71306 13.8839 10.3658 13.8236 10.9789 13.6176C11.5948 13.2953 12.5038 14.0867 12.5038 11.4767V11.2129C12.0698 11.8504 11.4277 12.3172 10.6875 12.5336C10.5998 12.5629 10.453 12.5044 10.3652 12.5044C9.94653 12.6866 9.49951 12.7951 9.04389 12.825Z" fill="#442823"/>
<path d="M7.84181 11.4188C7.84181 11.4188 7.5195 12.357 7.75406 12.7688L7.461 12.6512C7.5572 12.2315 7.68449 11.8196 7.84181 11.4188Z" fill="#442823"/>
<path d="M10.305 11.4188C10.305 11.4188 10.6273 12.357 10.3927 12.7688L10.6875 12.6512C10.6048 12.2278 10.4766 11.8146 10.305 11.4188Z" fill="#442823"/>
<path d="M7.07906 6.69827C6.9615 7.07965 6.58068 8.39927 7.34287 7.9594C7.06484 8.17783 6.87701 8.49102 6.81525 8.83915C6.77841 9.02583 6.69059 9.19865 6.56151 9.33845C6.43243 9.47826 6.26715 9.57957 6.084 9.63115C5.57706 9.70749 5.0604 9.58187 4.64512 9.28127C4.40194 9.04823 4.23526 8.74682 4.16716 8.41696C4.09905 8.08709 4.13274 7.74432 4.26375 7.43402C4.35296 7.18137 4.51447 6.96051 4.72818 6.79889C4.9419 6.63728 5.19841 6.54204 5.46581 6.52502C6.02381 6.3754 7.19662 6.2584 7.07906 6.69827Z" fill="#CCAC8D"/>
<path d="M9.07313 10.422C9.43661 10.5243 9.76157 10.7322 10.0069 11.0192C10.2522 11.3063 10.4068 11.6597 10.4513 12.0347V11.9784C10.442 11.589 10.3005 11.2142 10.0501 10.9158C9.79962 10.6174 9.4551 10.4131 9.07313 10.3365C8.68877 10.4081 8.34123 10.611 8.08987 10.9105C7.83851 11.21 7.69894 11.5875 7.69501 11.9784V12.0347C7.74431 11.6614 7.90071 11.3105 8.14529 11.0243C8.38987 10.7381 8.71215 10.5289 9.07313 10.422Z" fill="black"/>
<path d="M9.35103 8.68551C9.39796 8.67341 9.41632 8.58727 9.39204 8.49312C9.36775 8.39896 9.31003 8.33244 9.2631 8.34454C9.21617 8.35664 9.19781 8.44278 9.22209 8.53694C9.24637 8.6311 9.3041 8.69762 9.35103 8.68551Z" fill="#331712"/>
<path d="M8.86371 8.54589C8.89252 8.45302 8.87835 8.36609 8.83206 8.35173C8.78578 8.33737 8.7249 8.40102 8.69609 8.49389C8.66728 8.58676 8.68144 8.67369 8.72773 8.68805C8.77402 8.70241 8.8349 8.63876 8.86371 8.54589Z" fill="#331712"/>
<path d="M5.64244 9.19069C6.2417 9.19069 6.7275 8.70489 6.7275 8.10563C6.7275 7.50637 6.2417 7.02057 5.64244 7.02057C5.04317 7.02057 4.55737 7.50637 4.55737 8.10563C4.55737 8.70489 5.04317 9.19069 5.64244 9.19069Z" fill="black"/>
<path d="M5.93549 7.90033C6.09734 7.90033 6.22855 7.76913 6.22855 7.60727C6.22855 7.44542 6.09734 7.31421 5.93549 7.31421C5.77363 7.31421 5.64243 7.44542 5.64243 7.60727C5.64243 7.76913 5.77363 7.90033 5.93549 7.90033Z" fill="white"/>
<path d="M9.39376 8.10565C9.39376 8.10565 9.1007 8.22321 9.04164 8.25246C8.91812 8.2198 8.79965 8.17041 8.68951 8.10565H9.39376Z" fill="#7F4A41"/>
<path d="M7.25624 8.04712C6.70452 8.43419 6.19358 8.87634 5.7313 9.36674C5.20367 10.0417 5.20367 10.1587 5.20367 10.1587L5.58505 10.3348C5.87015 9.77843 6.28188 9.29676 6.78711 8.92856C7.46211 8.54718 7.5493 8.22487 7.5493 8.22487L7.25624 8.04712Z" fill="#EFCCA3"/>
<path d="M5.11427 6.08234C4.90991 6.62337 4.52716 7.07855 4.02921 7.37271C4.34021 7.33585 4.6255 7.18192 4.82706 6.94222C5.02862 6.70252 5.13132 6.39505 5.11427 6.08234Z" fill="#CCAC8D"/>
<path d="M12.8858 6.08234C13.0901 6.62337 13.4729 7.07855 13.9708 7.37271C13.6598 7.33585 13.3745 7.18192 13.173 6.94222C12.9714 6.70252 12.8687 6.39505 12.8858 6.08234Z" fill="#CCAC8D"/>
<path d="M10.8619 7.78276C10.3905 7.33183 9.78101 7.05282 9.13165 6.99076H9.2194C8.89464 6.98685 8.57316 7.05599 8.27873 7.19308C7.98429 7.33017 7.72445 7.5317 7.5184 7.78276C8.00235 7.39975 8.60224 7.19284 9.2194 7.19607C9.81009 7.23853 10.378 7.44138 10.8619 7.78276Z" fill="#CCAC8D"/>
<path d="M9.98213 6.17008C9.76751 5.88777 9.4525 5.69884 9.10238 5.64246H9.19013C9.01462 5.64839 8.84373 5.70024 8.6945 5.79281C8.54527 5.88539 8.42291 6.01547 8.33963 6.17008C8.56213 5.93632 8.86758 5.79935 9.19013 5.78871C9.34168 5.79227 9.49072 5.82813 9.6273 5.8939C9.76388 5.95967 9.88485 6.05383 9.98213 6.17008Z" fill="#CCAC8D"/>
<path d="M5.64244 9.98214C5.33511 10.1405 4.98086 10.1822 4.64513 10.0997H4.52813C4.29594 9.86048 4.12497 9.5687 4.02975 9.24921C4.15156 9.55625 4.38761 9.80414 4.68833 9.94081C4.98905 10.0775 5.33103 10.0923 5.64244 9.98214Z" fill="#CCAC8D"/>
<path d="M12.4459 9.98214C12.7532 10.1405 13.1075 10.1822 13.4432 10.0997H13.3256C13.4982 10.0306 13.6476 9.91403 13.7566 9.76351C13.8656 9.61299 13.9297 9.43467 13.9416 9.24921C13.8965 9.3989 13.821 9.53769 13.7198 9.65688C13.6187 9.77606 13.494 9.87309 13.3536 9.94189C13.2132 10.0107 13.0601 10.0498 12.9039 10.0567C12.7478 10.0636 12.5918 10.0382 12.4459 9.98214Z" fill="#CCAC8D"/>
<path d="M6.31689 6.02384C6.73573 5.94159 7.16817 5.96088 7.57802 6.08009C8.10564 6.25615 7.69558 6.95984 7.78333 6.98909C7.95238 6.83509 8.15226 6.71883 8.36969 6.64803C8.58713 6.57723 8.81715 6.55352 9.04446 6.57846C10.0418 6.63471 10.1588 7.07684 10.3056 6.98909C10.4524 6.93284 10.1588 5.75721 11.6837 6.02159C11.6837 6.02159 10.1295 5.61096 10.188 6.72528C9.86708 6.5156 9.49417 6.39929 9.11094 6.38936C8.72771 6.37943 8.34926 6.47626 8.01789 6.66903C8.01789 6.66903 8.34021 5.58396 6.31689 6.02384Z" fill="#CCAC8D"/>
<path d="M5.90626 4.5C5.90626 4.5 4.55626 6.17175 4.38133 6.81638C4.17601 7.46156 4.0292 10.1593 3.8537 10.5407L3.23776 7.90031L4.38133 5.14406L5.90626 4.5Z" fill="#CCAC8D"/>
<path d="M12.1815 4.5C12.1815 4.5 13.5315 6.17175 13.7065 6.81638C13.9118 7.46156 14.0586 10.1593 14.2341 10.5407L14.85 7.90031L13.7065 5.14406L12.1815 4.5Z" fill="#CCAC8D"/>
<path d="M12.0938 4.5C12.9122 5.19537 13.5467 6.08176 13.941 7.08075C14.3516 8.45887 14.1756 10.1599 14.4984 10.3652C14.9676 10.6582 15.4659 8.89875 15.642 8.72325C15.9058 8.43018 16.8148 7.66743 16.8739 7.52118C16.9329 7.37493 15.0559 5.32181 14.2054 4.91118C13.2666 4.43981 12.0375 4.38131 12.0938 4.5Z" fill="#56332B"/>
<path d="M13.3256 5.23126C14.3639 6.64669 14.9469 8.34448 14.9974 10.0991L15.6724 8.72101C15.1663 7.39412 14.3636 6.20047 13.3256 5.23126Z" fill="#442823"/>
<path d="M5.90624 4.5C5.08777 5.19537 4.45331 6.08176 4.05899 7.08075C3.64837 8.45887 3.82443 10.1599 3.50156 10.3652C3.03243 10.6582 2.53406 8.89875 2.35799 8.72325C2.09418 8.43018 1.18518 7.66743 1.12612 7.52118C1.06706 7.37493 2.94412 5.32181 3.79462 4.91118C4.73343 4.43981 5.96249 4.38131 5.90624 4.5Z" fill="#56332B"/>
<path d="M4.67436 5.23126C3.63613 6.64669 3.05306 8.34448 3.00261 10.0991L2.32874 8.71876C2.83479 7.39278 3.63707 6.19994 4.67436 5.23126Z" fill="#442823"/>
<path d="M3.73611 10.1289C3.7825 10.4411 3.89218 10.7404 4.05843 11.0087C4.26374 11.214 4.11468 10.8326 4.11468 10.8326C4.11468 10.8326 3.90936 10.715 3.93861 9.8651C3.96786 9.01517 3.73611 10.1289 3.73611 10.1289Z" fill="#CCAC8D"/>
<path d="M14.2931 10.1289C14.2468 10.4411 14.1371 10.7404 13.9708 11.0087C13.7655 11.214 13.9146 10.8326 13.9146 10.8326C13.9146 10.8326 14.1199 10.715 14.0906 9.86511C14.0586 9.04386 14.2931 10.1289 14.2931 10.1289Z" fill="#CCAC8D"/>
<path d="M7.81257 9.71829C7.86104 9.71829 7.90032 9.679 7.90032 9.63054C7.90032 9.58207 7.86104 9.54279 7.81257 9.54279C7.76411 9.54279 7.72482 9.58207 7.72482 9.63054C7.72482 9.679 7.76411 9.71829 7.81257 9.71829Z" fill="#442823"/>
<path d="M7.22587 10.3343C7.27434 10.3343 7.31362 10.295 7.31362 10.2465C7.31362 10.198 7.27434 10.1588 7.22587 10.1588C7.17741 10.1588 7.13812 10.198 7.13812 10.2465C7.13812 10.295 7.17741 10.3343 7.22587 10.3343Z" fill="#442823"/>
<path d="M7.04982 9.71829C7.09828 9.71829 7.13757 9.679 7.13757 9.63054C7.13757 9.58207 7.09828 9.54279 7.04982 9.54279C7.00135 9.54279 6.96207 9.58207 6.96207 9.63054C6.96207 9.679 7.00135 9.71829 7.04982 9.71829Z" fill="#442823"/>
<path d="M10.2172 9.71829C10.2657 9.71829 10.305 9.679 10.305 9.63054C10.305 9.58207 10.2657 9.54279 10.2172 9.54279C10.1688 9.54279 10.1295 9.58207 10.1295 9.63054C10.1295 9.679 10.1688 9.71829 10.2172 9.71829Z" fill="#442823"/>
<path d="M10.7741 10.3343C10.8226 10.3343 10.8619 10.295 10.8619 10.2465C10.8619 10.198 10.8226 10.1588 10.7741 10.1588C10.7257 10.1588 10.6864 10.198 10.6864 10.2465C10.6864 10.295 10.7257 10.3343 10.7741 10.3343Z" fill="#442823"/>
<path d="M10.9502 9.71829C10.9986 9.71829 11.0379 9.679 11.0379 9.63054C11.0379 9.58207 10.9986 9.54279 10.9502 9.54279C10.9017 9.54279 10.8624 9.58207 10.8624 9.63054C10.8624 9.679 10.9017 9.71829 10.9502 9.71829Z" fill="#442823"/>
</svg>
