<svg width="18" height="18" viewBox="0 0 18 18" fill="none" xmlns="http://www.w3.org/2000/svg">
<g clip-path="url(#clip0_375_995)">
<path d="M14.7996 6.15074C14.608 6.08426 14.4148 6.02267 14.2202 5.96603C14.2529 5.83089 14.283 5.69739 14.3097 5.56623C14.7483 3.41249 14.4616 1.67738 13.4822 1.1061C12.5432 0.558437 11.0075 1.1295 9.45654 2.4949C9.30369 2.6297 9.15422 2.76839 9.0083 2.91084C8.91061 2.81612 8.81119 2.72324 8.7101 2.63224C7.08462 1.17232 5.45534 0.557015 4.47701 1.12993C3.53883 1.6793 3.26102 3.31042 3.6559 5.35158C3.69518 5.55373 3.73954 5.75484 3.78893 5.95472C3.5583 6.02101 3.33577 6.09156 3.12279 6.16667C1.21704 6.83881 0 7.8921 0 8.98466C0 10.1131 1.30655 11.2449 3.29147 11.9312C3.45239 11.9866 3.61465 12.0379 3.7781 12.0852C3.72502 12.3004 3.67789 12.5172 3.63677 12.7351C3.26032 14.7408 3.5543 16.3334 4.48995 16.8793C5.45632 17.443 7.07829 16.8636 8.65758 15.4671C8.78564 15.3536 8.91088 15.2368 9.03319 15.1169C9.19122 15.2712 9.35347 15.4209 9.51975 15.566C11.0496 16.8976 12.5605 17.4353 13.4952 16.888C14.4607 16.3226 14.7745 14.6117 14.3671 12.5303C14.335 12.3672 14.299 12.2049 14.2592 12.0436C14.3731 12.0095 14.4849 11.9743 14.5939 11.9378C16.6574 11.2462 18 10.1281 18 8.98466C18 7.88812 16.7437 6.82771 14.7996 6.15074ZM14.352 11.1995C14.2536 11.2324 14.1526 11.2642 14.0497 11.2952C13.8219 10.5656 13.5145 9.78994 13.1382 8.98843C13.4973 8.20605 13.7929 7.44024 14.0143 6.71548C14.1984 6.76939 14.3771 6.82622 14.5493 6.88618C16.215 7.46628 17.2311 8.32383 17.2311 8.98466C17.2311 9.68852 16.1338 10.6023 14.352 11.1995ZM13.6128 12.6813C13.7929 13.6017 13.8186 14.4339 13.6993 15.0844C13.5921 15.669 13.3765 16.0587 13.1099 16.2148C12.5427 16.547 11.3296 16.1153 10.0213 14.9764C9.86663 14.8415 9.7157 14.7023 9.56869 14.5589C10.0759 13.9978 10.5828 13.3455 11.0775 12.621C11.9477 12.5429 12.7698 12.4152 13.5153 12.2409C13.5512 12.3869 13.5837 12.5337 13.6128 12.6813ZM6.13659 16.1574C5.58239 16.3554 5.14097 16.3611 4.87413 16.2055C4.30636 15.8742 4.07032 14.5955 4.39228 12.8802C4.43055 12.6775 4.47437 12.4759 4.52369 12.2757C5.26099 12.4407 6.07711 12.5594 6.94934 12.6309C7.44743 13.3398 7.96894 13.9914 8.49452 14.562C8.38283 14.6713 8.26849 14.7778 8.15161 14.8815C7.4532 15.499 6.75338 15.9371 6.13659 16.1574ZM3.54023 11.1952C2.66252 10.8917 1.93767 10.4973 1.44084 10.0669C0.994359 9.68019 0.769008 9.29619 0.769008 8.98466C0.769008 8.32163 1.74614 7.47595 3.37591 6.90118C3.5737 6.83148 3.7807 6.76569 3.99551 6.70395C4.22079 7.44508 4.51624 8.21999 4.8728 9.00358C4.5116 9.79876 4.21193 10.586 3.98447 11.3359C3.83527 11.2927 3.68715 11.2458 3.54023 11.1952ZM4.41056 5.20214C4.07229 3.45338 4.29694 2.13422 4.86232 1.80313C5.46448 1.45049 6.79605 1.95328 8.19956 3.2139C8.29108 3.29629 8.38112 3.38035 8.46963 3.46604C7.94665 4.03412 7.42992 4.68086 6.93626 5.38557C6.0897 5.46495 5.27934 5.59241 4.53431 5.76318C4.48841 5.57727 4.44715 5.39015 4.41056 5.20214ZM12.175 7.14159C11.999 6.83411 11.8165 6.5305 11.6276 6.23097C12.2019 6.30444 12.7522 6.40196 13.2689 6.52116C13.1138 7.02416 12.9204 7.54999 12.6928 8.08912C12.5264 7.76982 12.3538 7.45391 12.175 7.14159ZM9.00865 4.02196C9.36331 4.41066 9.71852 4.84459 10.0679 5.31544C9.35916 5.28158 8.64922 5.28144 7.94046 5.31502C8.2902 4.84851 8.64844 4.41514 9.00865 4.02196ZM5.82202 7.14692C5.64541 7.45673 5.47599 7.77067 5.31387 8.08848C5.08999 7.55127 4.89839 7.02302 4.74195 6.51291C5.25551 6.39669 5.80317 6.30167 6.37383 6.22955C6.18282 6.5309 5.99883 6.83683 5.82202 7.14692ZM6.39021 11.7951C5.80064 11.7285 5.24475 11.6384 4.73133 11.5253C4.89023 11.0061 5.08605 10.4666 5.31478 9.9179C5.47754 10.2359 5.64768 10.5501 5.82504 10.86C6.00743 11.1787 6.19629 11.4908 6.39021 11.7951ZM9.02988 14.0021C8.66538 13.6044 8.30187 13.1643 7.94686 12.6911C8.29153 12.7047 8.64288 12.7117 9 12.7117C9.36689 12.7117 9.72956 12.7034 10.0865 12.6873C9.73603 13.1691 9.38215 13.6098 9.02988 14.0021ZM12.7001 9.88987C12.9407 10.4446 13.1434 10.9813 13.3045 11.4916C12.7826 11.6121 12.2191 11.7091 11.6254 11.7812C11.8156 11.4761 11.9999 11.1672 12.178 10.8547C12.3591 10.537 12.5331 10.2154 12.7001 9.88987ZM11.5119 10.4661C11.2393 10.9452 10.9513 11.4152 10.6484 11.8754C10.0998 11.9147 9.54998 11.9342 9 11.9339C8.43982 11.9339 7.89497 11.9163 7.3703 11.8819C7.05953 11.4228 6.76605 10.9519 6.49048 10.4703C6.2162 9.9913 5.96008 9.50192 5.72252 9.00322C5.95947 8.50441 6.21489 8.0148 6.48823 7.53541L6.48816 7.53548C6.76139 7.05597 7.05253 6.58713 7.36095 6.12997C7.89623 6.089 8.44516 6.06767 8.99993 6.06767C9.55723 6.06767 10.1069 6.08922 10.6421 6.13047C10.9474 6.58694 11.2367 7.05417 11.5094 7.53128C11.7836 8.00962 12.0424 8.49684 12.2854 8.9922C12.0449 9.49262 11.7869 9.98422 11.5119 10.4661ZM13.0982 1.77994C13.7009 2.13159 13.9353 3.54961 13.5566 5.40919C13.5324 5.52782 13.5053 5.64867 13.4757 5.77122C12.7289 5.59682 11.918 5.46715 11.0689 5.38657C10.5744 4.67411 10.0619 4.02637 9.54738 3.46562C9.68222 3.33414 9.82026 3.20608 9.96138 3.08154C11.2903 1.91174 12.5323 1.44985 13.0982 1.77994ZM9 7.35873C9.8877 7.35873 10.6073 8.0867 10.6073 8.98466C10.6073 9.88262 9.8877 10.6106 9 10.6106C8.1123 10.6106 7.39266 9.88262 7.39266 8.98466C7.39266 8.0867 8.1123 7.35873 9 7.35873Z" fill="#00D8FF"/>
</g>
<defs>
<clipPath id="clip0_375_995">
<rect width="18" height="18" fill="white"/>
</clipPath>
</defs>
</svg>
