<svg width="18" height="18" viewBox="0 0 18 18" fill="none" xmlns="http://www.w3.org/2000/svg">
<g clip-path="url(#clip0_546_6)">
<path d="M5.48901 10.6134C6.39027 10.6134 7.12088 9.87118 7.12088 8.95562C7.12088 8.04006 6.39027 7.29785 5.48901 7.29785C4.58776 7.29785 3.85714 8.04006 3.85714 8.95562C3.85714 9.87118 4.58776 10.6134 5.48901 10.6134ZM1.63187 13.9289C2.53312 13.9289 3.26374 13.1867 3.26374 12.2712C3.26374 11.3556 2.53312 10.6134 1.63187 10.6134C0.730612 10.6134 0 11.3556 0 12.2712C0 13.1867 0.730612 13.9289 1.63187 13.9289ZM16.3681 13.9289C17.2694 13.9289 18 13.1867 18 12.2712C18 11.3556 17.2694 10.6134 16.3681 10.6134C15.4669 10.6134 14.7363 11.3556 14.7363 12.2712C14.7363 13.1867 15.4669 13.9289 16.3681 13.9289Z" fill="black"/>
<path d="M11.0085 9.02549C10.9563 8.47163 10.9298 8.01064 10.5121 7.68665C9.98315 7.27634 9.38399 7.54257 8.64594 7.27195C7.92073 7.09372 7.38281 6.43961 7.38281 5.65996C7.38281 4.74319 8.12657 4 9.04404 4C9.72356 4 10.3078 4.40768 10.5651 4.99161C10.959 5.75158 10.703 6.525 11.1978 6.91458C11.7838 7.37587 12.5737 7.03807 13.4551 7.47512C13.7384 7.60734 13.9781 7.81703 14.147 8.07692C14.3159 8.33681 14.4141 8.6469 14.4141 8.97988C14.4141 9.75953 13.8761 10.4136 13.1509 10.5919C12.4129 10.8625 11.8137 10.5963 11.2848 11.0066C10.69 11.468 11.0084 12.2399 10.5236 13.0553C10.2485 13.5923 9.68921 13.9598 9.04404 13.9598C8.12657 13.9598 7.38281 13.2166 7.38281 12.2998C7.38281 11.6338 7.77529 11.0595 8.34173 10.795C9.22316 10.358 10.0131 10.6958 10.599 10.2345C10.937 9.96839 11.0085 9.55788 11.0085 9.02549Z" fill="#D0021B"/>
</g>
<defs>
<clipPath id="clip0_546_6">
<rect width="18" height="10" fill="white" transform="translate(0 4)"/>
</clipPath>
</defs>
</svg>
