<svg width="18" height="18" viewBox="0 0 18 18" fill="none" xmlns="http://www.w3.org/2000/svg">
<g clip-path="url(#clip0_369_581)">
<path d="M12.472 12.3905C11.2064 14.978 8.99017 16.7189 6.05814 17.2913C5.60857 17.4014 5.14707 17.4552 4.68423 17.4516C2.99673 17.4516 1.44985 16.7484 0.698916 15.5967C-0.309365 14.0625 -0.65249 10.8098 2.67189 8.40375C2.73939 8.77078 2.8772 9.27422 2.9686 9.57235C2.31601 10.0572 1.78184 10.6837 1.40626 11.4047C0.78751 12.6197 0.856416 13.8333 1.58907 14.9555C2.09532 15.712 2.89689 16.1719 3.92767 16.3125C5.21514 16.4755 6.52126 16.2295 7.66126 15.6094C9.4486 14.67 10.6397 13.5478 11.4188 12.0136C11.1985 11.7859 11.0681 11.4862 11.0517 11.1698C11.04 10.8304 11.1633 10.5001 11.3948 10.2515C11.6263 10.0028 11.947 9.85621 12.2864 9.84375H12.3342C12.6644 9.8421 12.9826 9.96744 13.2229 10.1938C13.4633 10.4202 13.6074 10.7304 13.6255 11.0601C13.6435 11.3897 13.5342 11.7138 13.32 11.9651C13.1058 12.2164 12.8032 12.3757 12.4749 12.4102L12.472 12.3905ZM16.5038 9.54985C18.2208 11.4961 18.2672 13.7869 17.6034 15.1158C16.9847 16.3294 15.3534 17.5444 13.1597 17.5444C12.1356 17.5235 11.1282 17.2812 10.2066 16.8342C10.5286 16.605 10.9856 16.238 11.2374 16.0088C11.9481 16.3166 12.7129 16.4801 13.4874 16.4897C14.9077 16.4897 15.9834 15.8259 16.6247 14.6123C17.0367 13.8108 17.0606 12.8714 16.6711 11.9095C16.1931 10.6993 15.3426 9.67245 14.2425 8.9775C12.7992 8.00458 11.0978 7.48592 9.3572 7.48828H8.94517C8.84909 7.71023 8.69278 7.90083 8.49396 8.03852C8.29513 8.17621 8.06172 8.25548 7.82017 8.26735H7.77657C7.44247 8.26324 7.12313 8.12905 6.88638 7.89328C6.64962 7.6575 6.51411 7.33872 6.50862 7.00464C6.50313 6.67056 6.62809 6.34749 6.85697 6.10407C7.08584 5.86064 7.4006 5.71603 7.73439 5.70094H7.78079C8.01339 5.70111 8.24145 5.76539 8.43991 5.8867C8.63838 6.00801 8.79957 6.18166 8.90579 6.3886H9.27282C12.1978 6.3886 14.7656 7.51078 16.5038 9.54985ZM4.86704 12.7842C4.84296 12.5507 4.89953 12.316 5.02735 12.1191C3.74485 9.89719 3.0586 7.08047 4.11189 4.14844C4.86704 1.94485 6.76829 0.455627 8.82985 0.455627C11.0292 0.455627 13.32 2.38078 13.5942 6.09047C13.2511 5.97656 12.7505 5.80922 12.4495 5.74735C12.375 4.53375 11.3499 1.51032 8.92126 1.55532C8.05079 1.57922 6.76829 1.99125 6.10876 2.83782C5.29294 3.84837 4.81835 5.09147 4.75313 6.3886C4.59855 8.16719 5.01584 9.94868 5.94423 11.4736C5.99548 11.4549 6.05011 11.4472 6.10454 11.4511H6.14954C6.48968 11.4449 6.81834 11.5742 7.0632 11.8103C7.30807 12.0465 7.44909 12.3703 7.45524 12.7104C7.4614 13.0505 7.33218 13.3792 7.09602 13.6241C6.85985 13.8689 6.53609 14.0099 6.19595 14.0161H6.14954C5.81771 14.0149 5.49913 13.8857 5.26021 13.6554C5.02128 13.4252 4.88044 13.1116 4.86704 12.78V12.7842Z" fill="#764ABC"/>
</g>
<defs>
<clipPath id="clip0_369_581">
<rect width="18" height="18" fill="white"/>
</clipPath>
</defs>
</svg>
