<svg width="18" height="18" viewBox="0 0 18 18" fill="none" xmlns="http://www.w3.org/2000/svg">
<path d="M14.6869 9.88426C14.1923 9.88491 13.7043 9.99801 13.2598 10.215C13.1207 9.98408 13.0132 9.73547 12.9403 9.47588C12.8984 9.27241 12.8888 9.06362 12.9116 8.85713C12.9597 8.62993 13.0221 8.40598 13.0984 8.18663C13.0956 8.15795 13.0641 8.02238 12.7474 8.01788C12.4307 8.01338 12.1579 8.07807 12.1286 8.16188C12.0736 8.31497 12.0295 8.47173 11.9964 8.63101C11.7343 9.27761 11.4117 9.89799 11.0329 10.4839C10.8206 10.1359 10.7333 9.72601 10.7854 9.32176C10.8335 9.09455 10.8958 8.87061 10.9721 8.65126C10.9693 8.62257 10.9378 8.48701 10.6211 8.48251C10.3044 8.47801 10.0316 8.5427 10.0024 8.62651C9.97313 8.71032 9.93601 8.90776 9.8702 9.09563C9.80438 9.28351 9.03601 11.0003 8.83463 11.4429C8.73113 11.6679 8.6417 11.8513 8.5787 11.9751C8.57571 11.9831 8.57194 11.9908 8.56745 11.9981C8.5112 12.1044 8.48138 12.1624 8.48138 12.1624V12.1652C8.43807 12.2428 8.39195 12.3148 8.36888 12.3148C8.32866 12.1541 8.3306 11.9857 8.37451 11.826C8.48701 11.2303 8.76263 10.3044 8.75982 10.2724C8.75982 10.2549 8.81157 10.0941 8.58151 10.0108C8.52815 9.98543 8.46823 9.97721 8.41001 9.98728C8.35178 9.99735 8.29811 10.0252 8.25638 10.0671C8.23613 10.0671 8.22207 10.116 8.22207 10.116C8.22207 10.116 8.47238 9.07482 7.74451 9.07482C7.46106 9.13184 7.19188 9.24496 6.95279 9.40754C6.7137 9.57012 6.50954 9.77887 6.35232 10.0215C6.15657 10.1278 5.73976 10.3551 5.2937 10.5998C5.12495 10.6948 4.94832 10.7899 4.78463 10.881C4.77338 10.8698 4.76157 10.8551 4.75032 10.8439C3.86438 9.90001 2.23595 9.23401 2.30626 7.9712C2.33213 7.51107 2.4902 6.30282 5.4332 4.83526C7.85532 3.64163 9.78301 3.97238 10.1166 4.70588C10.5941 5.75326 9.08382 7.69782 6.58126 7.97963C6.3044 8.0358 6.01846 8.02903 5.74457 7.9598C5.47069 7.89057 5.21586 7.76067 4.99895 7.5797C4.86676 7.4357 4.84651 7.42726 4.79757 7.45595C4.71713 7.49926 4.76888 7.62863 4.79757 7.70345C4.89304 7.87622 5.02217 8.0281 5.17733 8.15013C5.33249 8.27215 5.51054 8.36183 5.70095 8.41388C6.68545 8.62663 7.71191 8.52491 8.63551 8.12307C10.1543 7.53638 11.3355 5.90513 10.989 4.53882C10.6408 3.15226 8.33963 2.69495 6.16163 3.47007C4.79743 3.92911 3.53691 4.65217 2.45195 5.59801C1.25213 6.7202 1.06257 7.69501 1.1402 8.10395C1.42145 9.55407 3.41888 10.4974 4.2182 11.1977C4.1777 11.2208 4.14057 11.241 4.10907 11.2579C3.70913 11.4564 2.18476 12.2535 1.80282 13.0961C1.37138 14.0524 1.87201 14.7358 2.20276 14.8281C2.70114 14.9474 3.22433 14.9081 3.6993 14.7157C4.17426 14.5233 4.5773 14.1873 4.85213 13.7548C5.08617 13.3961 5.23003 12.9861 5.27145 12.5597C5.31288 12.1334 5.25066 11.7034 5.09007 11.3063C5.08736 11.2998 5.08355 11.2939 5.07882 11.2888L5.39213 11.1049C5.59632 10.9839 5.7977 10.872 5.97038 10.7798C5.85328 11.1175 5.78454 11.4701 5.7662 11.8271C5.72644 12.3743 5.89389 12.9164 6.23532 13.3459C6.28727 13.3906 6.34759 13.4246 6.41276 13.4458C6.47794 13.4671 6.54668 13.4752 6.61501 13.4696C6.95251 13.4696 7.1072 13.1884 7.27651 12.8543C7.48351 12.4459 7.67026 11.9711 7.67026 11.9711C7.67026 11.9711 7.43738 13.2542 8.0702 13.2542C8.30026 13.2542 8.53313 12.9549 8.6372 12.8042V12.807C8.6372 12.807 8.64282 12.7986 8.65463 12.7783L8.69176 12.7181V12.7125C8.78401 12.5516 8.99101 12.186 9.2987 11.5791C9.69582 10.7966 10.0783 9.81845 10.0783 9.81845C10.1152 10.0334 10.1661 10.2457 10.2308 10.4541C10.3234 10.7066 10.433 10.9526 10.5587 11.1904C10.4664 11.3198 10.4091 11.3918 10.4091 11.3918L10.4119 11.3946C10.3371 11.4924 10.2566 11.5988 10.1672 11.7023C9.9011 11.9948 9.65421 12.3043 9.42807 12.6287C9.39447 12.6832 9.38292 12.7484 9.39578 12.8112C9.40863 12.8739 9.44493 12.9293 9.49726 12.9662C9.61567 13.0278 9.75064 13.0501 9.88257 13.0298C10.0814 13.0185 10.2769 12.9738 10.4608 12.8976C10.6386 12.835 10.8063 12.7469 10.9586 12.636C11.1157 12.5272 11.2421 12.3798 11.3258 12.208C11.4094 12.0362 11.4474 11.8458 11.4362 11.655C11.4185 11.4147 11.3571 11.1797 11.2551 10.9614C11.2838 10.9209 11.3113 10.881 11.3383 10.8405C11.6581 10.3632 11.9464 9.86541 12.2012 9.35045C12.2381 9.56542 12.289 9.77775 12.3536 9.98607C12.43 10.2043 12.5241 10.4159 12.6349 10.6189C12.267 10.9019 11.9772 11.274 11.7928 11.7C11.6117 12.2237 11.7523 12.4594 12.0178 12.5139C12.1631 12.524 12.3084 12.4942 12.438 12.4279C12.6286 12.3652 12.8082 12.273 12.9701 12.1545C13.1409 12.0537 13.2839 11.9121 13.3863 11.7423C13.4887 11.5726 13.5473 11.38 13.5568 11.1819C13.5441 10.9843 13.4994 10.7899 13.4246 10.6065C13.9101 10.4168 14.4365 10.3564 14.9524 10.431C16.3215 10.5919 16.5921 11.4463 16.5403 11.8063C16.5161 11.9339 16.4647 12.0549 16.3898 12.161C16.3149 12.2672 16.2182 12.3561 16.1061 12.4217C16.011 12.4819 15.9795 12.5021 15.9879 12.5454C15.9992 12.609 16.0442 12.6056 16.1258 12.5944C16.3321 12.5302 16.5142 12.4051 16.6479 12.2354C16.7817 12.0657 16.8609 11.8594 16.875 11.6438C16.9183 10.8 16.1128 9.8747 14.6886 9.88313L14.6869 9.88426ZM4.12313 13.4438C3.66863 13.9388 3.03582 14.1255 2.76245 13.9674C2.46882 13.7987 2.58413 13.0674 3.14213 12.5432C3.47314 12.2452 3.8309 11.9784 4.21088 11.7461C4.27726 11.7056 4.37513 11.6483 4.49213 11.5774L4.52363 11.5599L4.59282 11.5166C4.69251 11.8506 4.70155 12.2052 4.61901 12.5438C4.53647 12.8825 4.36533 13.1931 4.12313 13.4438ZM7.4312 11.1938C7.27313 11.5791 6.94238 12.5663 6.74101 12.5111C6.56832 12.465 6.45976 11.7169 6.7067 10.9778C6.83137 10.622 7.01299 10.2887 7.24445 9.99113C7.49195 9.71495 7.76532 9.6227 7.83113 9.7352C7.77109 10.2386 7.63629 10.7302 7.4312 11.1938ZM10.161 12.4999C10.0946 12.5342 10.0316 12.5561 10.0029 12.5404C9.9827 12.5291 10.0316 12.4841 10.0316 12.4841C10.0316 12.4841 10.3742 12.1157 10.5092 11.9492C10.5868 11.8513 10.6779 11.7366 10.7769 11.6066V11.6438C10.7769 12.0836 10.3511 12.3801 10.1616 12.501L10.161 12.4999ZM12.267 12.0195C12.2181 11.9852 12.2265 11.8699 12.3908 11.5104C12.505 11.2796 12.6645 11.0741 12.8599 10.9063C12.8898 10.9915 12.9054 11.081 12.906 11.1713C12.9082 11.3634 12.8468 11.5508 12.7313 11.7044C12.6158 11.8579 12.4528 11.9689 12.2676 12.0201L12.267 12.0195Z" fill="#CD6799"/>
</svg>
