<svg width="18" height="18" viewBox="0 0 18 18" fill="none" xmlns="http://www.w3.org/2000/svg">
<path d="M9 4.20001C6.86667 4.20001 5.53333 5.26668 5 7.40001C5.8 6.33335 6.73333 5.93335 7.8 6.20001C8.40859 6.35216 8.84359 6.79367 9.32507 7.28241C10.1094 8.07856 11.0172 9.00001 13 9.00001C15.1333 9.00001 16.4667 7.93335 17 5.80001C16.2 6.86668 15.2667 7.26668 14.2 7.00001C13.5914 6.84786 13.1564 6.40635 12.6749 5.91761C11.8906 5.12146 10.9828 4.20001 9 4.20001ZM5 9.00001C2.86667 9.00001 1.53333 10.0667 1 12.2C1.8 11.1333 2.73333 10.7333 3.8 11C4.40859 11.1522 4.84359 11.5937 5.32507 12.0824C6.10942 12.8786 7.01721 13.8 9 13.8C11.1333 13.8 12.4667 12.7333 13 10.6C12.2 11.6667 11.2667 12.0667 10.2 11.8C9.59141 11.6479 9.15641 11.2064 8.67493 10.7176C7.89058 9.92146 6.98279 9.00001 5 9.00001Z" fill="url(#paint0_linear_373_46)"/>
<defs>
<linearGradient id="paint0_linear_373_46" x1="-112.778" y1="477.288" x2="3807.68" y2="1837.09" gradientUnits="userSpaceOnUse">
<stop stop-color="#2298BD"/>
<stop offset="1" stop-color="#0ED7B5"/>
</linearGradient>
</defs>
</svg>
