<svg width="18" height="18" viewBox="0 0 18 18" fill="none" xmlns="http://www.w3.org/2000/svg">
<g clip-path="url(#clip0_373_20)">
<path d="M0 9V18H9H18V9V0H9H0V9Z" fill="#007ACC"/>
<path d="M14.5242 8.30447C14.9814 8.41876 15.3299 8.62161 15.6499 8.95304C15.8157 9.13018 16.0614 9.45304 16.0814 9.53018C16.0871 9.55304 15.3042 10.0788 14.8299 10.373C14.8128 10.3845 14.7442 10.3102 14.6671 10.1959C14.4357 9.85876 14.1928 9.71304 13.8214 9.68733C13.2757 9.65018 12.9242 9.9359 12.9271 10.413C12.9271 10.553 12.9471 10.6359 13.0042 10.7502C13.1242 10.9988 13.3471 11.1473 14.0471 11.4502C15.3357 12.0045 15.8871 12.3702 16.2299 12.8902C16.6128 13.4702 16.6985 14.3959 16.4385 15.0845C16.1528 15.833 15.4442 16.3416 14.4471 16.5102C14.1385 16.5645 13.4071 16.5559 13.0757 16.4959C12.3528 16.3673 11.6671 16.0102 11.2442 15.5416C11.0785 15.3588 10.7557 14.8816 10.7757 14.8473C10.7842 14.8359 10.8585 14.7902 10.9414 14.7416C11.0214 14.6959 11.3242 14.5216 11.6099 14.3559L12.1271 14.0559L12.2357 14.2159C12.3871 14.4473 12.7185 14.7645 12.9185 14.8702C13.4928 15.173 14.2814 15.1302 14.6699 14.7816C14.8357 14.6302 14.9042 14.473 14.9042 14.2416C14.9042 14.033 14.8785 13.9416 14.7699 13.7845C14.6299 13.5845 14.3442 13.4159 13.5328 13.0645C12.6042 12.6645 12.2042 12.4159 11.8385 12.0216C11.6271 11.793 11.4271 11.4273 11.3442 11.1216C11.2757 10.8673 11.2585 10.2302 11.3128 9.97304C11.5042 9.0759 12.1814 8.45018 13.1585 8.26447C13.4757 8.20447 14.2128 8.22733 14.5242 8.30447Z" fill="white"/>
<path d="M3.98047 9.05969L3.97475 9.79684H5.14618H6.31761V13.1254V16.454H7.14618H7.97475V13.1254V9.79684H9.14618H10.3176V9.07398C10.3176 8.67398 10.309 8.33969 10.2976 8.33112C10.289 8.31969 8.86333 8.31398 7.13475 8.31684L3.98904 8.32541L3.98047 9.05969Z" fill="white"/>
</g>
<defs>
<clipPath id="clip0_373_20">
<rect width="18" height="18" fill="white"/>
</clipPath>
</defs>
</svg>
