<svg width="18" height="18" viewBox="0 0 18 18" fill="none" xmlns="http://www.w3.org/2000/svg">
<path d="M16.4939 13.7953L9.31501 17.8594V14.6939L13.7813 12.2344L16.4939 13.7953ZM16.9861 13.3509V4.85859L14.3592 6.37734V11.835L16.9847 13.3495L16.9861 13.3509ZM1.5061 13.7953L8.67798 17.8566V14.6939L4.21032 12.2344L1.5061 13.7953ZM1.01392 13.3509V4.85859L3.64079 6.37734V11.835L1.01392 13.3509ZM1.32188 4.30875L8.68501 0.140625V3.20062L3.96704 5.79516L3.92907 5.81625L1.32188 4.30875ZM16.6753 4.30875L9.31501 0.140625V3.20062L14.033 5.79375L14.0709 5.81484L16.6781 4.30875H16.6753Z" fill="#8ED6FB"/>
<path d="M8.68497 13.9739L4.27075 11.5453V6.73874L8.68497 9.28124V13.9739ZM9.31497 13.9739L13.7292 11.5481V6.73874L9.31497 9.28124V13.9739ZM4.57028 6.18749L8.99997 3.74905L13.4297 6.18749L8.99997 8.74124L4.57028 6.18749Z" fill="#1C78C0"/>
</svg>
