<svg width="18" height="18" viewBox="0 0 18 18" fill="none" xmlns="http://www.w3.org/2000/svg">
<g clip-path="url(#clip0_377_1048)">
<path d="M9 0.000482105C6.63829 -0.0246371 4.36367 0.932739 2.67605 2.6622C0.988435 4.39167 0.0259038 6.75171 0 9.22364C0.00910013 11.1772 0.609499 13.0774 1.71496 14.6515C2.82042 16.2255 4.37406 17.3923 6.15273 17.9844C6.60273 18.07 6.76636 17.7874 6.76636 17.539C6.76636 17.2907 6.76636 16.7426 6.76636 15.9719C4.26273 16.5285 3.73091 14.7387 3.73091 14.7387C3.56424 14.1768 3.20992 13.6965 2.73273 13.3856C1.91455 12.8204 2.79818 12.829 2.79818 12.829C3.08099 12.8686 3.35156 12.9746 3.58962 13.1393C3.82767 13.3039 4.02702 13.5228 4.17273 13.7796C4.42664 14.2404 4.84326 14.5785 5.33292 14.721C5.82258 14.8636 6.34614 14.7992 6.79091 14.5417C6.83665 14.0728 7.03955 13.6359 7.36364 13.3086C5.36727 13.0773 3.27273 12.2895 3.27273 8.75264C3.25487 7.83005 3.58056 6.93636 4.18091 6.26058C3.9075 5.4685 3.93978 4.59606 4.27091 3.82848C4.27091 3.82848 5.03182 3.58013 6.72545 4.77049C8.19973 4.35929 9.75118 4.35929 11.2255 4.77049C12.9436 3.58013 13.68 3.82848 13.68 3.82848C14.0111 4.59606 14.0434 5.4685 13.77 6.26058C14.3843 6.92397 14.7276 7.81166 14.7273 8.73551C14.7273 12.2809 12.6164 13.0602 10.6364 13.2914C10.8532 13.5117 11.0206 13.7796 11.1267 14.0758C11.2328 14.3719 11.2749 14.689 11.25 15.0042V17.5305C11.25 17.5305 11.4136 18.07 11.8636 17.9758C13.6373 17.3801 15.1857 16.213 16.2877 14.6412C17.3897 13.0694 17.989 11.1733 18 9.22364C17.9741 6.75171 17.0116 4.39167 15.3239 2.6622C13.6363 0.932739 11.3617 -0.0246371 9 0.000482105Z" fill="#231F20"/>
</g>
<defs>
<clipPath id="clip0_377_1048">
<rect width="18" height="18" fill="white"/>
</clipPath>
</defs>
</svg>
