<svg width="18" height="18" viewBox="0 0 18 18" fill="none" xmlns="http://www.w3.org/2000/svg">
<path d="M2.21675 14.8065H4.6795V8.82567L1.16132 6.18701V13.7511C1.16132 14.3351 1.63451 14.8065 2.21675 14.8065Z" fill="#4285F4"/>
<path d="M13.1235 14.8065H15.5863C16.1703 14.8065 16.6417 14.3334 16.6417 13.7511V6.18701L13.1235 8.82567" fill="#34A853"/>
<path d="M13.1235 4.25206V8.82569L16.6417 6.18706V4.77978C16.6417 3.47452 15.1518 2.73045 14.1086 3.51322" fill="#FBBC04"/>
<path d="M4.6792 8.82558V4.25195L8.90101 7.41833L13.1228 4.25195V8.82558L8.90101 11.992" fill="#EA4335"/>
<path d="M1.16132 4.77978V6.18706L4.6795 8.82569V4.25206L3.69441 3.51322C2.64951 2.73045 1.16132 3.47452 1.16132 4.77978Z" fill="#C5221F"/>
</svg>
